<?xml version="1.0" standalone="no"?>
<!DOCTYPE svg PUBLIC "-//W3C//DTD SVG 20010904//EN"
 "http://www.w3.org/TR/2001/REC-SVG-20010904/DTD/svg10.dtd">
<svg version="1.0" xmlns="http://www.w3.org/2000/svg"
 width="100.000000pt" height="100.000000pt" viewBox="0 0 100.000000 100.000000"
 preserveAspectRatio="xMidYMid meet">

<g transform="translate(0.000000,100.000000) scale(0.100000,-0.100000)"
fill="#000000" stroke="none">
<path d="M40 806 c0 -3 9 -20 20 -38 14 -24 74 -63 242 -161 123 -70 226 -132
231 -136 4 -4 -3 -12 -16 -18 -20 -9 -39 -1 -142 59 -66 38 -149 86 -184 106
l-64 36 22 -40 c19 -33 47 -53 186 -132 l163 -93 162 93 c122 71 166 101 181
127 11 18 18 35 17 37 -2 1 -61 -31 -131 -72 -71 -41 -134 -74 -141 -74 -8 0
-18 6 -24 13 -9 11 27 35 169 117 140 80 187 112 204 140 12 19 21 36 20 38
-2 2 -106 -56 -231 -128 l-227 -131 -196 113 c-108 61 -211 121 -228 131 -18
10 -33 16 -33 13z"/>
<path d="M452 684 c-23 -14 -42 -27 -42 -29 0 -2 9 -9 19 -15 14 -7 27 -7 46
2 21 9 31 9 46 0 15 -10 25 -10 45 1 l25 13 -48 27 -49 26 -42 -25z"/>
<path d="M243 453 c18 -29 55 -56 148 -111 68 -40 131 -77 139 -81 12 -8 9
-12 -13 -22 -21 -10 -30 -10 -39 -1 -16 16 -43 15 -56 -1 -8 -10 -1 -19 32
-39 l42 -25 63 37 c35 20 64 40 65 43 0 4 -17 18 -38 31 l-39 24 39 24 c21 14
62 38 91 53 34 20 59 43 74 69 l23 40 -35 -20 c-156 -92 -241 -135 -255 -130
-8 3 -69 37 -135 76 -66 38 -122 70 -125 70 -2 0 6 -17 19 -37z"/>
</g>
</svg>
